PathFileType  4	(X/Y/Z) C:\Users\antoi\Documents\MyRepositories\mobilecap\ResultsAnalysis
DataRate	CameraRate	NumFrames	NumMarkers	Units	OrigDataRate	OrigDataStartFrame	OrigNumFrames
100.0	100.0	4	51	mm	100.0	83	132
Frame#	Time	r_knee			r_shank_antsup			r_ankle			r_calc			r_5meta			r_toe			L_knee			L_shank_antsup			L_ankle			L_calc			L_5meta			L_toe			r_sh2			r_sh3			r_sh4			L_sh2			L_sh3			r_thigh1			r_thigh2			r_thigh3			r_thigh4			r_thigh5			L_thigh1			L_thigh2			L_thigh3			L_thigh4			r.ASIS			r.PSIS			L.ASIS			L.PSIS			C7			R_Shoulder			L_Shoulder			R_Sternum			L_Sternum			R_humerus			R_elbow_med			R_elbow_lat			R_forearm			R_wrist_radius			R_wrist_ulna			L_humerus			L_elbow_med			L_elbow_lat			L_forearm			L_wrist_radius			L_wrist_ulna			R_HJC			L_HJC			R_HJC_reg			L_HJC_reg			
		X1	Y1	Z1	X2	Y2	Z2	X3	Y3	Z3	X4	Y4	Z4	X5	Y5	Z5	X6	Y6	Z6	X7	Y7	Z7	X8	Y8	Z8	X9	Y9	Z9	X10	Y10	Z10	X11	Y11	Z11	X12	Y12	Z12	X13	Y13	Z13	X14	Y14	Z14	X15	Y15	Z15	X16	Y16	Z16	X17	Y17	Z17	X18	Y18	Z18	X19	Y19	Z19	X20	Y20	Z20	X21	Y21	Z21	X22	Y22	Z22	X23	Y23	Z23	X24	Y24	Z24	X25	Y25	Z25	X26	Y26	Z26	X27	Y27	Z27	X28	Y28	Z28	X29	Y29	Z29	X30	Y30	Z30	X31	Y31	Z31	X32	Y32	Z32	X33	Y33	Z33	X34	Y34	Z34	X35	Y35	Z35	X36	Y36	Z36	X37	Y37	Z37	X38	Y38	Z38	X39	Y39	Z39	X40	Y40	Z40	X41	Y41	Z41	X42	Y42	Z42	X43	Y43	Z43	X44	Y44	Z44	X45	Y45	Z45	X46	Y46	Z46	X47	Y47	Z47	X48	Y48	Z48	X49	Y49	Z49	X50	Y50	Z50	X51	Y51	Z51	

83	0.82000000	967.30826	503.92686	-89.77558	952.15326	403.03272	-101.27711	686.67706	216.38399	-116.87550	624.81074	234.74884	-173.29359	725.99444	94.02101	-72.74934	776.70917	93.00515	-121.71529	879.48557	495.63890	-361.05529	913.46115	408.17863	-339.28026	812.77500	93.75228	-309.94379	738.06993	51.82411	-260.50101	916.40426	39.20522	-344.63681	963.10305	65.05152	-286.60687	871.14543	321.79659	-106.18038	906.13864	446.12644	-60.55021	820.32586	370.15559	-61.02186	835.82537	424.90607	-385.41950	818.56438	306.03323	-381.21974	923.83012	782.78810	-73.08937	970.15894	682.53307	-79.28034	927.20128	635.17453	-53.42566	821.72058	733.54338	-63.78162	875.32152	632.70802	-76.19502	932.73047	747.20338	-391.13059	951.79902	612.09172	-357.12797	834.35756	722.99034	-432.69213	851.15931	595.81378	-393.92067	912.24701	962.70437	-118.25247	709.52891	991.73034	-204.93986	921.66959	967.54884	-372.42771	716.67533	997.84536	-300.21615	743.76194	1454.41421	-260.87972	794.51709	1428.97686	-88.78601	838.40109	1421.41276	-403.86692	869.77707	1385.13955	-221.55588	870.22824	1385.45614	-268.03523	822.82844	1299.25691	-29.00555	747.92815	1098.14749	-83.03055	749.15707	1109.05603	-13.65899	800.95805	1044.23096	12.67299	841.68271	876.08937	-10.70447	806.03280	879.94091	26.66128	883.93408	1286.04322	-453.52653	827.42484	1079.66700	-423.48133	858.26825	1095.43414	-494.43502	918.08913	1048.03142	-495.23094	988.49685	885.45331	-467.76417	959.87084	883.77710	-510.27172	832.15358	874.19660	-148.99768	840.54257	879.86264	-338.28216	841.62147	879.72813	-164.77829	854.15421	890.45627	-331.86332	
84	0.83000000	987.70338	509.37904	-90.97287	976.43788	408.11697	-100.68206	720.87900	207.42215	-114.72650	657.39391	221.21225	-170.69223	768.85625	88.58489	-69.71094	819.20182	90.84185	-119.09043	881.95060	495.95552	-361.14902	915.15972	408.22556	-339.69566	812.94155	93.79935	-309.82089	738.22840	51.83884	-260.42989	916.40880	39.14942	-344.72178	963.15712	64.83425	-286.74095	899.33558	323.01803	-104.81971	928.11143	449.53595	-61.29208	846.27636	369.58023	-60.72851	837.37777	425.53483	-385.29336	819.31336	306.76159	-381.12455	938.18569	787.03605	-73.36307	986.80338	688.10536	-80.13632	945.29036	639.78651	-53.63624	837.05653	735.54355	-63.28428	893.12228	636.04232	-75.76878	940.43821	746.55656	-391.43405	957.12064	611.10271	-357.62193	841.33827	724.22197	-432.45210	855.89792	596.79265	-393.49122	923.87769	965.72056	-119.46722	720.96821	993.74685	-204.98710	932.45803	968.83520	-373.35085	727.99817	999.31331	-300.33560	756.24365	1456.02071	-261.17263	806.86344	1430.57132	-89.04479	851.21533	1423.29471	-403.65218	882.08916	1386.57819	-221.61514	882.50761	1386.87761	-268.03184	834.00689	1300.63677	-29.24601	757.31341	1100.59498	-84.41006	757.82989	1111.42060	-14.94023	807.99941	1045.78254	12.07654	844.83673	876.47034	-10.53842	808.90046	881.31423	26.46825	898.49214	1288.85953	-452.81343	844.60916	1081.73752	-423.65990	876.37905	1097.90557	-494.00997	937.42712	1051.93345	-493.30580	1012.08820	891.79956	-463.63407	984.14688	888.89005	-506.50130	844.06166	876.82338	-148.96218	851.59880	881.26791	-338.31899	853.17683	882.30808	-165.36215	865.48666	892.05879	-332.29375	
85	0.84000000	1007.11184	514.55514	-92.34408	1000.16243	413.15705	-100.11422	755.81897	197.79518	-112.70978	691.19345	206.76856	-168.35568	812.33760	83.12786	-66.78130	862.27288	88.82119	-116.41428	884.48401	496.30493	-361.25051	916.85413	408.28323	-340.22061	813.15430	93.91048	-309.71286	738.43900	51.97148	-260.38030	916.41934	39.07787	-344.81691	963.24956	64.59367	-286.90248	927.52639	324.16725	-103.46776	949.06459	452.51913	-62.29338	871.77048	368.46623	-60.64833	838.89014	426.21971	-385.13195	820.01295	307.57817	-381.00598	952.42362	790.98265	-73.65243	1003.07572	693.29523	-81.05816	962.88808	644.16897	-53.99330	852.26884	737.47435	-62.65659	910.49767	639.04023	-75.65728	948.12767	745.90267	-391.65549	962.56945	610.17792	-358.08288	848.39326	725.35277	-432.17016	860.76316	597.73864	-393.08019	935.41656	968.40803	-120.63596	732.42314	995.41244	-204.89523	943.26773	969.91760	-374.14146	739.26865	1000.56783	-300.33108	768.67933	1457.39467	-261.42748	819.20647	1431.93568	-89.29112	863.90710	1425.03802	-403.44673	894.38077	1387.82887	-221.71428	894.77603	1388.12457	-268.05394	845.18572	1301.83561	-29.43845	766.71685	1102.84402	-85.57888	766.51797	1113.63379	-16.08622	814.99047	1047.19513	11.60509	848.25332	876.89659	-10.26672	812.05392	882.73490	26.36223	912.93031	1291.56750	-452.20205	861.51001	1083.81524	-423.74838	894.27114	1100.27709	-493.55806	956.51059	1055.80386	-491.43740	1035.38972	898.29205	-459.53717	1008.11963	894.08765	-502.65264	855.94918	879.11926	-148.88768	862.65018	882.46113	-338.30181	864.81688	884.48370	-165.94624	876.78034	893.49365	-332.67074	
86	0.85000000	1025.51601	519.33862	-93.84417	1023.25308	418.00567	-99.66274	791.51263	187.77801	-110.87046	726.27151	191.71367	-166.38361	856.26288	77.92641	-63.96438	905.74746	87.10995	-113.68459	887.19656	496.65787	-361.32823	918.64109	408.33935	-340.75223	813.43631	94.10248	-309.61025	738.69509	52.26969	-260.33931	916.44043	38.99060	-344.91394	963.40328	64.34493	-287.08586	955.69069	325.20120	-102.21703	969.06609	454.89040	-63.46032	896.85261	366.69051	-60.76156	840.51455	426.92885	-384.95175	820.81787	308.44327	-380.87351	966.56910	794.56772	-73.96937	1018.93745	697.98697	-82.06440	979.91228	648.20654	-54.53752	867.37234	739.32811	-61.89816	927.43107	641.72843	-75.84755	955.81109	745.23017	-391.79319	968.17222	609.30381	-358.49084	855.54091	726.35788	-431.84780	865.78551	598.61974	-392.70046	946.91714	970.68422	-121.68151	743.89222	996.68070	-204.68810	954.10351	970.70871	-374.78232	750.48558	1001.58919	-300.21099	781.08547	1458.52386	-261.64489	831.54193	1433.03113	-89.51783	876.49481	1426.59159	-403.26781	906.62450	1388.84936	-221.84829	907.03689	1389.16981	-268.10396	856.34976	1302.80491	-29.57997	776.10247	1104.84718	-86.54649	775.23123	1115.63916	-17.08536	821.95164	1048.40809	11.26003	851.94034	877.28662	-9.90706	815.52376	884.12470	26.35303	927.24809	1294.09841	-451.69668	878.17008	1085.80793	-423.76041	911.94684	1102.47578	-493.08568	975.33701	1059.57127	-489.64577	1058.39236	904.84111	-455.49339	1031.78138	899.31499	-498.75655	867.79840	881.02189	-148.75514	873.69497	883.37551	-338.21267	876.55728	886.12949	-166.49233	888.05587	894.68563	-332.99098	
